<svg width="132" height="200" viewBox="0 0 132 200" fill="none" xmlns="http://www.w3.org/2000/svg">
<path fill-rule="evenodd" clip-rule="evenodd" d="M81.4858 189.952C97.5008 196.586 114.666 200 132 200L132 132.68C123.506 132.68 115.095 131.007 107.248 127.757C99.4007 124.506 92.2704 119.742 86.2643 113.736C80.2582 107.73 75.4939 100.599 72.2435 92.752C68.993 84.9046 67 76.4939 67 68L67 -5.85733e-06L-1.4687e-05 0L-1.15398e-05 68C-1.15398e-05 85.3345 3.41427 102.499 10.0479 118.514C16.6815 134.529 26.4046 149.081 38.6619 161.338C50.9192 173.595 65.4708 183.318 81.4858 189.952Z" fill="#F2F2F2"/>
</svg>
