<svg width="164" height="48" viewBox="0 0 164 48" fill="none" xmlns="http://www.w3.org/2000/svg">
<path d="M8.792 16V6.032H6.846V12.136L2.898 6.032H1.162V16H3.108V9.882L7.056 16H8.792ZM16.9531 16V8.706H15.1331V13.116C15.1331 14.11 14.4891 14.446 13.9151 14.446C13.3411 14.446 12.7111 14.11 12.7111 13.116V8.706H10.8911V13.368C10.8911 14.166 11.0451 14.852 11.6331 15.44C12.0391 15.846 12.6271 16.084 13.3551 16.084C14.0271 16.084 14.6991 15.832 15.1751 15.328V16H16.9531ZM24.9925 12.92V12.108C24.9925 10.106 23.8445 8.622 21.8145 8.622C19.9245 8.622 18.6365 9.966 18.6365 12.346C18.6365 15.3 20.2885 16.084 22.0105 16.084C23.3265 16.084 24.0405 15.678 24.7825 14.936L23.6765 13.858C23.2145 14.32 22.8225 14.544 22.0245 14.544C21.0025 14.544 20.4285 13.858 20.4285 12.92H24.9925ZM23.2005 11.674H20.4285C20.4425 11.352 20.4845 11.156 20.5965 10.89C20.7925 10.456 21.1985 10.134 21.8145 10.134C22.4305 10.134 22.8365 10.456 23.0325 10.89C23.1445 11.156 23.1865 11.352 23.2005 11.674ZM32.1584 13.704C32.1584 12.472 31.4304 11.702 29.9884 11.562L28.8404 11.45C28.1964 11.394 28.0844 11.086 28.0844 10.82C28.0844 10.456 28.3924 10.12 29.1204 10.12C29.7504 10.12 30.3944 10.232 30.8144 10.61L31.9344 9.476C31.2344 8.818 30.2824 8.622 29.1484 8.622C27.6644 8.622 26.3344 9.434 26.3344 10.946C26.3344 12.29 27.1464 12.864 28.4624 12.99L29.6104 13.102C30.1844 13.158 30.3804 13.41 30.3804 13.774C30.3804 14.32 29.7224 14.53 29.0924 14.53C28.5324 14.53 27.7484 14.446 27.1464 13.844L25.9564 15.034C26.8804 15.958 27.9164 16.084 29.0644 16.084C30.7864 16.084 32.1584 15.314 32.1584 13.704ZM36.8234 16V14.46H36.1654C35.7314 14.46 35.5354 14.222 35.5354 13.802V10.302H36.8234V8.916H35.5354V6.76H33.7154V8.916H32.9454V10.302H33.7154V13.914C33.7154 14.95 34.3454 16 35.8294 16H36.8234ZM43.8033 9.308C43.2993 8.804 42.7953 8.622 42.0813 8.622C41.2973 8.622 40.5973 8.986 40.2473 9.406V8.706H38.4693V16H40.2893V11.604C40.2893 10.68 40.9053 10.26 41.4653 10.26C41.9133 10.26 42.1513 10.414 42.4313 10.694L43.8033 9.308ZM50.2196 16V11.198C50.2196 9.49 49.1556 8.622 47.1116 8.622C45.8936 8.622 45.1936 8.846 44.4796 9.63L45.6416 10.764C46.0196 10.33 46.3416 10.162 47.0416 10.162C48.0076 10.162 48.3996 10.512 48.3996 11.31V11.674H46.6776C44.9836 11.674 44.1856 12.626 44.1856 13.788C44.1856 14.432 44.3956 15.02 44.7876 15.426C45.2216 15.86 45.8236 16.07 46.6496 16.07C47.4896 16.07 47.9516 15.86 48.4416 15.37V16H50.2196ZM48.3996 13.312C48.3996 13.76 48.3296 14.054 48.1336 14.236C47.8116 14.544 47.4896 14.586 46.9856 14.586C46.2716 14.586 45.9356 14.25 45.9356 13.746C45.9356 13.228 46.2996 12.92 46.9576 12.92H48.3996V13.312ZM57.6702 13.704C57.6702 12.472 56.9422 11.702 55.5002 11.562L54.3522 11.45C53.7082 11.394 53.5962 11.086 53.5962 10.82C53.5962 10.456 53.9042 10.12 54.6322 10.12C55.2622 10.12 55.9062 10.232 56.3262 10.61L57.4462 9.476C56.7462 8.818 55.7942 8.622 54.6602 8.622C53.1762 8.622 51.8462 9.434 51.8462 10.946C51.8462 12.29 52.6582 12.864 53.9742 12.99L55.1222 13.102C55.6962 13.158 55.8922 13.41 55.8922 13.774C55.8922 14.32 55.2342 14.53 54.6042 14.53C54.0442 14.53 53.2602 14.446 52.6582 13.844L51.4682 15.034C52.3922 15.958 53.4282 16.084 54.5762 16.084C56.2982 16.084 57.6702 15.314 57.6702 13.704ZM67.7837 9.308C67.2797 8.804 66.7757 8.622 66.0617 8.622C65.2777 8.622 64.5777 8.986 64.2277 9.406V8.706H62.4497V16H64.2697V11.604C64.2697 10.68 64.8857 10.26 65.4457 10.26C65.8937 10.26 66.1317 10.414 66.4117 10.694L67.7837 9.308ZM74.3753 12.92V12.108C74.3753 10.106 73.2273 8.622 71.1973 8.622C69.3073 8.622 68.0193 9.966 68.0193 12.346C68.0193 15.3 69.6713 16.084 71.3933 16.084C72.7093 16.084 73.4233 15.678 74.1653 14.936L73.0593 13.858C72.5973 14.32 72.2053 14.544 71.4073 14.544C70.3853 14.544 69.8113 13.858 69.8113 12.92H74.3753ZM72.5833 11.674H69.8113C69.8253 11.352 69.8673 11.156 69.9793 10.89C70.1753 10.456 70.5813 10.134 71.1973 10.134C71.8133 10.134 72.2193 10.456 72.4153 10.89C72.5273 11.156 72.5693 11.352 72.5833 11.674ZM81.8633 16V6.032H80.0433V9.35C79.5673 8.818 79.0073 8.622 78.2653 8.622C77.5513 8.622 76.8933 8.874 76.4873 9.28C75.7593 10.008 75.7453 11.254 75.7453 12.346C75.7453 13.438 75.7593 14.698 76.4873 15.426C76.8933 15.832 77.5653 16.084 78.2793 16.084C79.0493 16.084 79.5813 15.874 80.0853 15.314V16H81.8633ZM80.0433 12.346C80.0433 13.536 79.8893 14.446 78.7973 14.446C77.7053 14.446 77.5653 13.536 77.5653 12.346C77.5653 11.156 77.7053 10.26 78.7973 10.26C79.8893 10.26 80.0433 11.156 80.0433 12.346ZM89.8929 12.92V12.108C89.8929 10.106 88.7449 8.622 86.7149 8.622C84.8249 8.622 83.5369 9.966 83.5369 12.346C83.5369 15.3 85.1889 16.084 86.9109 16.084C88.2269 16.084 88.9409 15.678 89.6829 14.936L88.5769 13.858C88.1149 14.32 87.7229 14.544 86.9249 14.544C85.9029 14.544 85.3289 13.858 85.3289 12.92H89.8929ZM88.1009 11.674H85.3289C85.3429 11.352 85.3849 11.156 85.4969 10.89C85.6929 10.456 86.0989 10.134 86.7149 10.134C87.3309 10.134 87.7369 10.456 87.9329 10.89C88.0449 11.156 88.0869 11.352 88.1009 11.674ZM97.0588 13.704C97.0588 12.472 96.3308 11.702 94.8888 11.562L93.7408 11.45C93.0968 11.394 92.9848 11.086 92.9848 10.82C92.9848 10.456 93.2928 10.12 94.0208 10.12C94.6508 10.12 95.2948 10.232 95.7148 10.61L96.8348 9.476C96.1348 8.818 95.1828 8.622 94.0488 8.622C92.5648 8.622 91.2348 9.434 91.2348 10.946C91.2348 12.29 92.0468 12.864 93.3628 12.99L94.5108 13.102C95.0848 13.158 95.2808 13.41 95.2808 13.774C95.2808 14.32 94.6228 14.53 93.9928 14.53C93.4328 14.53 92.6488 14.446 92.0468 13.844L90.8568 15.034C91.7808 15.958 92.8168 16.084 93.9648 16.084C95.6868 16.084 97.0588 15.314 97.0588 13.704ZM107.326 13.704C107.326 12.472 106.598 11.702 105.156 11.562L104.008 11.45C103.364 11.394 103.252 11.086 103.252 10.82C103.252 10.456 103.56 10.12 104.288 10.12C104.918 10.12 105.562 10.232 105.982 10.61L107.102 9.476C106.402 8.818 105.45 8.622 104.316 8.622C102.832 8.622 101.502 9.434 101.502 10.946C101.502 12.29 102.314 12.864 103.63 12.99L104.778 13.102C105.352 13.158 105.548 13.41 105.548 13.774C105.548 14.32 104.89 14.53 104.26 14.53C103.7 14.53 102.916 14.446 102.314 13.844L101.124 15.034C102.048 15.958 103.084 16.084 104.232 16.084C105.954 16.084 107.326 15.314 107.326 13.704ZM114.718 12.346C114.718 11.03 114.55 10.204 113.892 9.518C113.444 9.042 112.702 8.622 111.624 8.622C110.546 8.622 109.818 9.042 109.37 9.518C108.712 10.204 108.544 11.03 108.544 12.346C108.544 13.676 108.712 14.502 109.37 15.188C109.818 15.664 110.546 16.084 111.624 16.084C112.702 16.084 113.444 15.664 113.892 15.188C114.55 14.502 114.718 13.676 114.718 12.346ZM112.898 12.346C112.898 13.102 112.856 13.746 112.478 14.124C112.268 14.334 111.988 14.446 111.624 14.446C111.26 14.446 110.994 14.334 110.784 14.124C110.406 13.746 110.364 13.102 110.364 12.346C110.364 11.59 110.406 10.96 110.784 10.582C110.994 10.372 111.26 10.26 111.624 10.26C111.988 10.26 112.268 10.372 112.478 10.582C112.856 10.96 112.898 11.59 112.898 12.346ZM121.76 15.09L120.528 13.872C120.15 14.278 119.828 14.446 119.352 14.446C118.918 14.446 118.582 14.292 118.316 13.97C118.036 13.62 117.91 13.116 117.91 12.346C117.91 11.576 118.036 11.086 118.316 10.736C118.582 10.414 118.918 10.26 119.352 10.26C119.828 10.26 120.15 10.428 120.528 10.834L121.76 9.602C121.116 8.93 120.36 8.622 119.352 8.622C117.896 8.622 116.09 9.392 116.09 12.346C116.09 15.3 117.896 16.084 119.352 16.084C120.36 16.084 121.116 15.762 121.76 15.09ZM125.014 7.46V5.976H123.152V7.46H125.014ZM125 16V8.706H123.18V16H125ZM132.552 16V11.198C132.552 9.49 131.488 8.622 129.444 8.622C128.226 8.622 127.526 8.846 126.812 9.63L127.974 10.764C128.352 10.33 128.674 10.162 129.374 10.162C130.34 10.162 130.732 10.512 130.732 11.31V11.674H129.01C127.316 11.674 126.518 12.626 126.518 13.788C126.518 14.432 126.728 15.02 127.12 15.426C127.554 15.86 128.156 16.07 128.982 16.07C129.822 16.07 130.284 15.86 130.774 15.37V16H132.552ZM130.732 13.312C130.732 13.76 130.662 14.054 130.466 14.236C130.144 14.544 129.822 14.586 129.318 14.586C128.604 14.586 128.268 14.25 128.268 13.746C128.268 13.228 128.632 12.92 129.29 12.92H130.732V13.312ZM137.608 16V14.46H136.908C136.446 14.46 136.264 14.236 136.264 13.802V6.032H134.444V13.914C134.444 14.95 135.074 16 136.572 16H137.608ZM144.703 12.92V12.108C144.703 10.106 143.555 8.622 141.525 8.622C139.635 8.622 138.347 9.966 138.347 12.346C138.347 15.3 139.999 16.084 141.721 16.084C143.037 16.084 143.751 15.678 144.493 14.936L143.387 13.858C142.925 14.32 142.533 14.544 141.735 14.544C140.713 14.544 140.139 13.858 140.139 12.92H144.703ZM142.911 11.674H140.139C140.153 11.352 140.195 11.156 140.307 10.89C140.503 10.456 140.909 10.134 141.525 10.134C142.141 10.134 142.547 10.456 142.743 10.89C142.855 11.156 142.897 11.352 142.911 11.674ZM151.869 13.704C151.869 12.472 151.141 11.702 149.699 11.562L148.551 11.45C147.907 11.394 147.795 11.086 147.795 10.82C147.795 10.456 148.103 10.12 148.831 10.12C149.461 10.12 150.105 10.232 150.525 10.61L151.645 9.476C150.945 8.818 149.993 8.622 148.859 8.622C147.375 8.622 146.045 9.434 146.045 10.946C146.045 12.29 146.857 12.864 148.173 12.99L149.321 13.102C149.895 13.158 150.091 13.41 150.091 13.774C150.091 14.32 149.433 14.53 148.803 14.53C148.243 14.53 147.459 14.446 146.857 13.844L145.667 15.034C146.591 15.958 147.627 16.084 148.775 16.084C150.497 16.084 151.869 15.314 151.869 13.704Z" fill="white"/>
<path fill-rule="evenodd" clip-rule="evenodd" d="M12.8123 34.4071C13.4312 34.5789 13.9186 35.0854 14.084 35.7283C14.3846 36.8939 14.3846 39.3256 14.3846 39.3256C14.3846 39.3256 14.3846 41.7573 14.084 42.9228C13.9186 43.5657 13.4312 44.0723 12.8123 44.244C11.6905 44.5564 7.19225 44.5564 7.19225 44.5564C7.19225 44.5564 2.6941 44.5564 1.57232 44.244C0.953409 44.0723 0.466048 43.5657 0.300634 42.9228C0 41.7573 0 39.3256 0 39.3256C0 39.3256 0 36.8939 0.300634 35.7283C0.466048 35.0854 0.953409 34.5789 1.57232 34.4071C2.6941 34.0948 7.19225 34.0948 7.19225 34.0948C7.19225 34.0948 11.6905 34.0948 12.8123 34.4071ZM9.49087 39.3257L5.75385 37.0838V41.5674L9.49087 39.3257Z" fill="#FAFAFA"/>
<path fill-rule="evenodd" clip-rule="evenodd" d="M53.1884 36.9566H56.0203V38.2376H56.0598C56.4539 37.5006 57.4172 36.7236 58.8536 36.7236C61.8436 36.7236 62.3956 38.6653 62.3956 41.1889V46.3311H59.445V41.7722C59.445 40.6851 59.4246 39.2868 57.9106 39.2868C56.3745 39.2868 56.1385 40.471 56.1385 41.6935V46.3311H53.1884V36.9566Z" fill="#FAFAFA"/>
<path fill-rule="evenodd" clip-rule="evenodd" d="M49.9864 32.3201C50.8694 32.3201 51.5871 33.0758 51.5871 34.006C51.5871 34.9371 50.8694 35.6928 49.9864 35.6928C49.1011 35.6928 48.3846 34.9371 48.3846 34.006C48.3846 33.0758 49.1011 32.3201 49.9864 32.3201Z" fill="#FAFAFA"/>
<path fill-rule="evenodd" clip-rule="evenodd" d="M48.6034 46.3311H51.3655V36.9721H48.6034V46.3311Z" fill="#FAFAFA"/>
<path d="M102.008 47.6512V40.0656H104.565L104.949 37.0965H102.008V35.2054C102.008 34.3476 102.247 33.7634 103.476 33.7634H105.035V31.1149C104.764 31.0789 103.833 31 102.751 31C100.49 31 98.9433 32.3792 98.9433 34.9131V37.0969H96.3956V40.0656H98.9433V47.6512H102.008Z" fill="#FAFAFA"/>
<path fill-rule="evenodd" clip-rule="evenodd" d="M143.305 44.6861C148.43 44.6861 151.233 40.5611 151.233 36.9839C151.233 36.8668 151.233 36.7501 151.225 36.634C151.77 36.2508 152.241 35.7764 152.615 35.2328C152.106 35.4517 151.567 35.5953 151.014 35.6587C151.596 35.3204 152.031 34.7883 152.239 34.1615C151.692 34.4768 151.094 34.699 150.47 34.8185C149.607 33.9263 148.234 33.7079 147.123 34.2858C146.011 34.8638 145.437 36.0943 145.722 37.2874C143.482 37.1783 141.395 36.1502 139.98 34.4591C139.24 35.696 139.618 37.2784 140.843 38.0727C140.399 38.0599 139.965 37.9437 139.578 37.7339C139.578 37.745 139.578 37.7566 139.578 37.7682C139.578 39.0568 140.513 40.1666 141.813 40.4218C141.403 40.5305 140.973 40.5464 140.555 40.4682C140.92 41.5709 141.966 42.3264 143.158 42.3481C142.172 43.1015 140.953 43.5104 139.698 43.5092C139.476 43.5088 139.255 43.4957 139.035 43.4701C140.309 44.2646 141.791 44.686 143.305 44.684" fill="#FAFAFA"/>
</svg>
