<svg width="190" height="93" viewBox="0 0 190 93" fill="none" xmlns="http://www.w3.org/2000/svg">
<path d="M48.0962 6.14243H0V29.8693H48.0962V6.14243Z" fill="white"/>
<path d="M18.9894 13.6498C18.9894 13.6498 18.588 13.8104 18.0259 14.533L14.9145 18.4474V20.7759C14.9145 21.3781 15.1554 21.6792 15.1554 21.6792H11.3013C11.3013 21.6792 11.5422 21.3982 11.5422 20.796V18.4474L8.47091 14.5732C7.90885 13.8706 7.4873 13.6699 7.4873 13.6699H11.4016C11.4016 13.6699 11.5221 14.0713 11.9236 14.6936L13.2283 16.701H13.2685L14.5733 14.6936C14.9747 14.0713 15.0952 13.6699 15.0952 13.6699H18.9894V13.6498Z" fill="#252525"/>
<path d="M26.718 13.6497H20.3146C20.3146 13.6497 20.5555 13.9308 20.5555 14.533V20.7758C20.5555 21.378 20.3146 21.6591 20.3146 21.6591H24.1687C24.1687 21.6591 23.9278 21.378 23.9278 20.7558V18.8086H26.718C28.4845 18.8086 29.8294 17.8852 29.8294 16.2191C29.8294 14.5731 28.5447 13.6497 26.718 13.6497ZM25.0118 17.3834H23.9479V15.1552H25.0319C25.8147 15.1552 26.437 15.4563 26.437 16.2593C26.437 17.0622 25.7946 17.3834 25.0118 17.3834Z" fill="#252525"/>
<path d="M39.7657 15.5168C39.7657 15.5168 39.4044 15.296 38.8022 15.296H34.9682V17.223H38.0394C38.6416 17.223 39.0631 17.0825 39.0631 17.0825V18.9895C39.0631 18.9895 38.6215 18.8089 38.0193 18.8089H34.9481V20.756C34.9481 21.3582 35.1689 21.6392 35.1689 21.6392H31.3348C31.3348 21.6392 31.5757 21.3582 31.5757 20.756V14.5131C31.5757 13.9109 31.3348 13.6299 31.3348 13.6299H39.7457V15.5168H39.7657Z" fill="#252525"/>
<path d="M86.4968 10.4783V19.0497C86.4968 20.2541 86.1957 21.2177 85.5935 21.9002C84.9913 22.5827 84.1482 22.9239 83.0843 22.9239C82.0003 22.9239 81.1573 22.5827 80.555 21.9002C79.9328 21.2177 79.6317 20.2742 79.6317 19.0497V6.18259H71.6625V19.391C71.6625 22.6228 72.7063 25.2123 74.7939 27.1594C76.8816 29.1066 79.6517 30.0902 83.0843 30.0902C86.5169 30.0902 89.267 29.1066 91.3546 27.1594C93.4422 25.2123 94.466 22.6228 94.466 19.391V6.18259H90.7926C88.4239 6.16252 86.4968 8.08957 86.4968 10.4783Z" fill="white"/>
<path d="M110.043 25.1923C109.642 24.4696 109.321 23.7269 109.04 22.944H107.434C106.591 22.944 105.948 22.7032 105.466 22.2415C104.985 21.7597 104.764 21.1174 104.764 20.2943V12.2248H109.14H109.943V10.4382V6.08228H104.563V0.0200748H103.861V0H96.7545V8.41081V12.9073L96.7746 12.9274V21.6593C96.7746 24.2287 97.4972 26.2562 98.9626 27.7215C100.428 29.1869 102.435 29.9296 105.005 29.9296H109.12C110.625 29.9296 112.753 29.9296 114.339 29.9296C112.572 28.7252 111.107 27.1394 110.043 25.1923Z" fill="white"/>
<path d="M60.7425 6.18277H52.3518V14.6137C53.9175 11.0004 57.2899 8.02953 60.7425 6.18277Z" fill="white"/>
<path d="M60.3811 8.69193C55.8646 11.5424 52.7933 16.4604 52.4922 22.1211H52.4722V29.8294H60.4012V22.9642C60.4414 18.0261 64.4561 14.0315 69.4142 14.0315V6.10245C68.9325 6.10245 68.4708 6.12252 68.0091 6.16267C65.1988 6.38347 62.6093 7.28678 60.3811 8.69193Z" fill="white"/>
<path d="M111.167 22.1011C110.987 21.5791 110.846 21.0372 110.746 20.4952C110.846 21.0372 110.987 21.5791 111.167 22.1011Z" fill="white"/>
<path d="M130.518 6.14237L129.695 7.92892C127.708 6.28289 125.339 5.45987 122.629 5.45987C119.076 5.45987 116.165 6.60406 113.897 8.91252C111.629 11.2009 110.485 14.1517 110.485 17.7449C110.485 18.5077 110.545 19.2303 110.645 19.9329C110.665 20.1136 110.705 20.3143 110.746 20.4949C110.846 21.057 110.986 21.5789 111.167 22.1008C111.408 22.8034 111.689 23.4658 112.05 24.1082C112.271 24.5097 112.512 24.9111 112.793 25.2724C113.315 26.0152 113.937 26.6776 114.62 27.2597C114.961 27.5608 115.322 27.8218 115.704 28.0827C115.925 28.2233 116.145 28.3638 116.386 28.5043C116.527 28.5846 116.667 28.6649 116.808 28.7251C117.149 28.9058 117.49 29.0463 117.852 29.1868C118.032 29.2671 118.233 29.3273 118.414 29.3875C118.655 29.4678 118.895 29.5481 119.136 29.6083C119.417 29.6886 119.698 29.7488 119.979 29.8091C120.843 29.9696 121.726 30.07 122.669 30.07C125.339 30.07 127.668 29.2671 129.655 27.6612L130.578 29.9094H136.5V6.14237H130.518ZM127.025 21.5187C126.042 22.5224 124.797 23.0242 123.312 23.0242C121.826 23.0242 120.582 22.5224 119.598 21.5187C118.614 20.515 118.133 19.2504 118.133 17.7449C118.133 16.2193 118.614 14.9546 119.598 13.951C120.582 12.9473 121.806 12.4455 123.312 12.4455C124.817 12.4455 126.042 12.9473 127.025 13.951C128.009 14.9546 128.511 16.2193 128.511 17.7248C128.511 19.2303 128.009 20.515 127.025 21.5187Z" fill="white"/>
<path d="M8.008 64.2061H6.944C6.678 65.4241 5.796 66.2221 4.55 66.2221C3.892 66.2221 3.262 65.9701 2.828 65.5221C2.198 64.8781 2.128 64.1921 2.128 62.1061C2.128 60.0201 2.198 59.3341 2.828 58.6901C3.262 58.2421 3.892 57.9901 4.55 57.9901C5.796 57.9901 6.65 58.7881 6.916 60.0061H8.008C7.672 58.1301 6.342 57.0381 4.55 57.0381C3.57 57.0381 2.674 57.4021 2.002 58.0741C1.064 59.0121 1.064 59.9921 1.064 62.1061C1.064 64.2201 1.064 65.2001 2.002 66.1381C2.674 66.8101 3.57 67.1741 4.55 67.1741C6.328 67.1741 7.686 66.0821 8.008 64.2061ZM15.4381 63.6461C15.4381 62.5821 15.2981 61.6161 14.5981 60.9021C14.1221 60.4261 13.4641 60.1181 12.6241 60.1181C11.7841 60.1181 11.1261 60.4261 10.6501 60.9021C9.95006 61.6161 9.81006 62.5821 9.81006 63.6461C9.81006 64.7101 9.95006 65.6761 10.6501 66.3901C11.1261 66.8661 11.7841 67.1741 12.6241 67.1741C13.4641 67.1741 14.1221 66.8661 14.5981 66.3901C15.2981 65.6761 15.4381 64.7101 15.4381 63.6461ZM14.4301 63.6461C14.4301 64.4161 14.3881 65.2701 13.8841 65.7741C13.5621 66.0961 13.1141 66.2781 12.6241 66.2781C12.1341 66.2781 11.7001 66.0961 11.3781 65.7741C10.8741 65.2701 10.8181 64.4161 10.8181 63.6461C10.8181 62.8761 10.8741 62.0221 11.3781 61.5181C11.7001 61.1961 12.1341 61.0141 12.6241 61.0141C13.1141 61.0141 13.5621 61.1961 13.8841 61.5181C14.3881 62.0221 14.4301 62.8761 14.4301 63.6461ZM23.0159 67.0901V62.6801C23.0159 61.8821 22.7919 61.2381 22.3019 60.7621C21.8819 60.3421 21.2799 60.1181 20.5379 60.1181C19.7679 60.1181 19.0959 60.3981 18.6059 60.9581V60.2021H17.5979V67.0901H18.6059V62.8481C18.6059 61.6441 19.2779 61.0141 20.3139 61.0141C21.3499 61.0141 22.0079 61.6301 22.0079 62.8481V67.0901H23.0159ZM30.4292 65.0741C30.4292 63.7861 29.6032 63.3241 28.3992 63.2121L27.2932 63.1141C26.4252 63.0441 26.0892 62.6941 26.0892 62.1061C26.0892 61.4061 26.6212 60.9721 27.6292 60.9721C28.3432 60.9721 28.9732 61.1401 29.4632 61.5181L30.1212 60.8601C29.5052 60.3561 28.6232 60.1181 27.6432 60.1181C26.1732 60.1181 25.1092 60.8741 25.1092 62.1341C25.1092 63.2681 25.8232 63.8701 27.1672 63.9821L28.3012 64.0801C29.0992 64.1501 29.4492 64.4861 29.4492 65.0881C29.4492 65.9001 28.7492 66.3061 27.6152 66.3061C26.7612 66.3061 26.0192 66.0821 25.4732 65.5081L24.8012 66.1801C25.5572 66.9081 26.4672 67.1741 27.6292 67.1741C29.2952 67.1741 30.4292 66.4041 30.4292 65.0741ZM37.7525 67.0901V60.2021H36.7445V64.4441C36.7445 65.6481 36.0585 66.2781 35.0225 66.2781C33.9865 66.2781 33.3425 65.6621 33.3425 64.4441V60.2021H32.3345V64.5981C32.3345 65.3961 32.5445 66.0541 33.0345 66.5301C33.4545 66.9501 34.0705 67.1741 34.8125 67.1741C35.5825 67.1741 36.2685 66.8801 36.7585 66.3201V67.0901H37.7525ZM42.7159 67.0901V66.2221H42.1699C41.4699 66.2221 41.2459 65.8861 41.2459 65.2141V57.1221H40.2379V65.2561C40.2379 66.3061 40.7839 67.0901 41.9879 67.0901H42.7159ZM47.0681 67.0901V66.2221H46.5361C45.8921 66.2221 45.5981 65.8441 45.5981 65.2141V61.0141H47.0681V60.2441H45.5981V58.0881H44.5901V60.2441H43.7221V61.0141H44.5901V65.2421C44.5901 66.2641 45.1781 67.0901 46.3541 67.0901H47.0681ZM53.8752 67.0901V62.4141C53.8752 60.9161 52.9652 60.1181 51.1172 60.1181C49.9972 60.1181 49.2972 60.3421 48.6812 61.1401L49.3672 61.7701C49.7732 61.1961 50.2212 60.9861 51.1032 60.9861C52.3632 60.9861 52.8672 61.4901 52.8672 62.4981V63.1561H50.7952C49.2552 63.1561 48.4152 63.9401 48.4152 65.1441C48.4152 65.6901 48.5972 66.2081 48.9332 66.5441C49.3672 66.9921 49.9272 67.1741 50.8792 67.1741C51.8032 67.1741 52.3072 66.9921 52.8672 66.4321V67.0901H53.8752ZM52.8672 64.6541C52.8672 65.2281 52.7552 65.6201 52.5172 65.8441C52.0832 66.2641 51.5652 66.3061 50.9772 66.3061C49.8852 66.3061 49.3952 65.9281 49.3952 65.1301C49.3952 64.3321 49.8992 63.9121 50.9352 63.9121H52.8672V64.6541ZM61.3003 65.0741C61.3003 63.7861 60.4743 63.3241 59.2703 63.2121L58.1643 63.1141C57.2963 63.0441 56.9603 62.6941 56.9603 62.1061C56.9603 61.4061 57.4923 60.9721 58.5003 60.9721C59.2143 60.9721 59.8443 61.1401 60.3343 61.5181L60.9923 60.8601C60.3763 60.3561 59.4943 60.1181 58.5143 60.1181C57.0443 60.1181 55.9803 60.8741 55.9803 62.1341C55.9803 63.2681 56.6943 63.8701 58.0383 63.9821L59.1723 64.0801C59.9703 64.1501 60.3203 64.4861 60.3203 65.0881C60.3203 65.9001 59.6203 66.3061 58.4863 66.3061C57.6323 66.3061 56.8903 66.0821 56.3443 65.5081L55.6723 66.1801C56.4283 66.9081 57.3383 67.1741 58.5003 67.1741C60.1663 67.1741 61.3003 66.4041 61.3003 65.0741ZM64.9416 62.8761V61.5601H63.6256V62.8761H64.9416ZM64.9416 67.0901V65.7741H63.6256V67.0901H64.9416ZM76.0422 64.4301V59.7821C76.0422 58.1301 74.8662 57.0381 73.3122 57.0381C71.7582 57.0381 70.5822 58.1301 70.5822 59.7821V64.4301C70.5822 66.0821 71.7582 67.1741 73.3122 67.1741C74.8662 67.1741 76.0422 66.0821 76.0422 64.4301ZM75.0342 64.3741C75.0342 65.4661 74.4182 66.2781 73.3122 66.2781C72.2062 66.2781 71.5902 65.4661 71.5902 64.3741V59.8381C71.5902 58.7461 72.2062 57.9341 73.3122 57.9341C74.4182 57.9341 75.0342 58.7461 75.0342 59.8381V64.3741ZM83.5667 64.3461C83.5667 63.1841 82.9227 62.4001 82.0827 61.9241C82.8667 61.4761 83.3707 60.7481 83.3707 59.7121C83.3707 58.1581 82.2087 57.0381 80.6267 57.0381C79.0447 57.0381 77.8827 58.1581 77.8827 59.7121C77.8827 60.7481 78.4007 61.4761 79.1847 61.9241C78.3447 62.4001 77.6867 63.1841 77.6867 64.3461C77.6867 66.0261 78.9747 67.1741 80.6267 67.1741C82.2787 67.1741 83.5667 66.0261 83.5667 64.3461ZM82.3627 59.7261C82.3627 60.7761 81.6487 61.5041 80.6267 61.5041C79.6047 61.5041 78.8907 60.7761 78.8907 59.7261C78.8907 58.6901 79.6047 57.9341 80.6267 57.9341C81.6487 57.9341 82.3627 58.6901 82.3627 59.7261ZM82.5587 64.3321C82.5587 65.4381 81.7187 66.2781 80.6267 66.2781C79.5347 66.2781 78.6947 65.4381 78.6947 64.3321C78.6947 63.2261 79.5347 62.3861 80.6267 62.3861C81.7187 62.3861 82.5587 63.2261 82.5587 64.3321ZM88.9071 67.0901V57.1221H87.8991L86.0371 58.7321V59.8801L87.8991 58.2421V67.0901H88.9071ZM97.9856 64.4301V59.7821C97.9856 58.1301 96.8096 57.0381 95.2556 57.0381C93.7016 57.0381 92.5256 58.1301 92.5256 59.7821V64.4301C92.5256 66.0821 93.7016 67.1741 95.2556 67.1741C96.8096 67.1741 97.9856 66.0821 97.9856 64.4301ZM96.9776 64.3741C96.9776 65.4661 96.3616 66.2781 95.2556 66.2781C94.1496 66.2781 93.5336 65.4661 93.5336 64.3741V59.8381C93.5336 58.7461 94.1496 57.9341 95.2556 57.9341C96.3616 57.9341 96.9776 58.7461 96.9776 59.8381V64.3741ZM107.022 67.0901V57.1221H106.014L104.152 58.7321V59.8801L106.014 58.2421V67.0901H107.022ZM116.171 67.0901V66.1941H111.887L115.373 61.7421C115.919 61.0421 116.171 60.5241 116.171 59.7261C116.171 58.0881 115.065 57.0381 113.427 57.0381C111.761 57.0381 110.683 58.1721 110.683 59.7401H111.691C111.691 58.4521 112.503 57.9341 113.427 57.9341C114.519 57.9341 115.163 58.6481 115.163 59.7261C115.163 60.2721 114.981 60.7061 114.603 61.1961L110.669 66.1941V67.0901H116.171ZM123.485 67.0901V66.1941H119.201L122.687 61.7421C123.233 61.0421 123.485 60.5241 123.485 59.7261C123.485 58.0881 122.379 57.0381 120.741 57.0381C119.075 57.0381 117.997 58.1721 117.997 59.7401H119.005C119.005 58.4521 119.817 57.9341 120.741 57.9341C121.833 57.9341 122.477 58.6481 122.477 59.7261C122.477 60.2721 122.295 60.7061 121.917 61.1961L117.983 66.1941V67.0901H123.485ZM134.286 67.0901V66.1941H130.002L133.488 61.7421C134.034 61.0421 134.286 60.5241 134.286 59.7261C134.286 58.0881 133.18 57.0381 131.542 57.0381C129.876 57.0381 128.798 58.1721 128.798 59.7401H129.806C129.806 58.4521 130.618 57.9341 131.542 57.9341C132.634 57.9341 133.278 58.6481 133.278 59.7261C133.278 60.2721 133.096 60.7061 132.718 61.1961L128.784 66.1941V67.0901H134.286ZM141.53 64.4301V59.7821C141.53 58.1301 140.354 57.0381 138.8 57.0381C137.246 57.0381 136.07 58.1301 136.07 59.7821V64.4301C136.07 66.0821 137.246 67.1741 138.8 67.1741C140.354 67.1741 141.53 66.0821 141.53 64.4301ZM140.522 64.3741C140.522 65.4661 139.906 66.2781 138.8 66.2781C137.694 66.2781 137.078 65.4661 137.078 64.3741V59.8381C137.078 58.7461 137.694 57.9341 138.8 57.9341C139.906 57.9341 140.522 58.7461 140.522 59.8381V64.3741ZM148.915 67.0901V66.1941H144.631L148.117 61.7421C148.663 61.0421 148.915 60.5241 148.915 59.7261C148.915 58.0881 147.809 57.0381 146.171 57.0381C144.505 57.0381 143.427 58.1721 143.427 59.7401H144.435C144.435 58.4521 145.247 57.9341 146.171 57.9341C147.263 57.9341 147.907 58.6481 147.907 59.7261C147.907 60.2721 147.725 60.7061 147.347 61.1961L143.413 66.1941V67.0901H148.915ZM156.159 64.4301V59.7821C156.159 58.1301 154.983 57.0381 153.429 57.0381C151.875 57.0381 150.699 58.1301 150.699 59.7821V64.4301C150.699 66.0821 151.875 67.1741 153.429 67.1741C154.983 67.1741 156.159 66.0821 156.159 64.4301ZM155.151 64.3741C155.151 65.4661 154.535 66.2781 153.429 66.2781C152.323 66.2781 151.707 65.4661 151.707 64.3741V59.8381C151.707 58.7461 152.323 57.9341 153.429 57.9341C154.535 57.9341 155.151 58.7461 155.151 59.8381V64.3741ZM7.63 87.0901V86.1381H2.506V82.5401H6.874V81.5881H2.506V78.0741H7.63V77.1221H1.442V87.0901H7.63ZM19.5105 87.0901V82.6801C19.5105 81.8821 19.2585 81.2381 18.7685 80.7621C18.3485 80.3561 17.7325 80.1181 16.9905 80.1181C16.0245 80.1181 15.2545 80.5101 14.7225 81.2661C14.3025 80.5101 13.5605 80.1181 12.6085 80.1181C11.8385 80.1181 11.1525 80.3981 10.6625 80.9581V80.2021H9.65453V87.0901H10.6625V82.8481C10.6625 81.6441 11.3485 81.0141 12.3845 81.0141C13.4205 81.0141 14.0785 81.6301 14.0785 82.8481V87.0901H15.0865V82.7361C15.0865 81.6441 15.8005 81.0141 16.8085 81.0141C17.8445 81.0141 18.5025 81.6301 18.5025 82.8481V87.0901H19.5105ZM26.8732 87.0901V82.4141C26.8732 80.9161 25.9632 80.1181 24.1152 80.1181C22.9952 80.1181 22.2952 80.3421 21.6792 81.1401L22.3652 81.7701C22.7712 81.1961 23.2192 80.9861 24.1012 80.9861C25.3612 80.9861 25.8652 81.4901 25.8652 82.4981V83.1561H23.7932C22.2532 83.1561 21.4132 83.9401 21.4132 85.1441C21.4132 85.6901 21.5952 86.2081 21.9312 86.5441C22.3652 86.9921 22.9252 87.1741 23.8772 87.1741C24.8012 87.1741 25.3052 86.9921 25.8652 86.4321V87.0901H26.8732ZM25.8652 84.6541C25.8652 85.2281 25.7532 85.6201 25.5152 85.8441C25.0812 86.2641 24.5632 86.3061 23.9752 86.3061C22.8832 86.3061 22.3932 85.9281 22.3932 85.1301C22.3932 84.3321 22.8972 83.9121 23.9332 83.9121H25.8652V84.6541ZM30.4064 78.2421V77.1081H29.2724V78.2421H30.4064ZM30.3364 87.0901V80.2021H29.3284V87.0901H30.3364ZM35.3194 87.0901V86.2221H34.7734C34.0734 86.2221 33.8494 85.8861 33.8494 85.2141V77.1221H32.8414V85.2561C32.8414 86.3061 33.3874 87.0901 34.5914 87.0901H35.3194ZM38.6916 82.8761V81.5601H37.3756V82.8761H38.6916ZM38.6916 87.0901V85.7741H37.3756V87.0901H38.6916ZM49.6382 85.0741C49.6382 83.7861 48.8122 83.3241 47.6082 83.2121L46.5022 83.1141C45.6342 83.0441 45.2982 82.6941 45.2982 82.1061C45.2982 81.4061 45.8302 80.9721 46.8382 80.9721C47.5522 80.9721 48.1822 81.1401 48.6722 81.5181L49.3302 80.8601C48.7142 80.3561 47.8322 80.1181 46.8522 80.1181C45.3822 80.1181 44.3182 80.8741 44.3182 82.1341C44.3182 83.2681 45.0322 83.8701 46.3762 83.9821L47.5102 84.0801C48.3082 84.1501 48.6582 84.4861 48.6582 85.0881C48.6582 85.9001 47.9582 86.3061 46.8242 86.3061C45.9702 86.3061 45.2282 86.0821 44.6822 85.5081L44.0102 86.1801C44.7662 86.9081 45.6762 87.1741 46.8382 87.1741C48.5042 87.1741 49.6382 86.4041 49.6382 85.0741ZM56.8775 83.6461C56.8775 82.5821 56.7375 81.6161 56.0375 80.9021C55.5615 80.4261 54.9035 80.1181 54.0635 80.1181C53.2235 80.1181 52.5655 80.4261 52.0895 80.9021C51.3895 81.6161 51.2495 82.5821 51.2495 83.6461C51.2495 84.7101 51.3895 85.6761 52.0895 86.3901C52.5655 86.8661 53.2235 87.1741 54.0635 87.1741C54.9035 87.1741 55.5615 86.8661 56.0375 86.3901C56.7375 85.6761 56.8775 84.7101 56.8775 83.6461ZM55.8695 83.6461C55.8695 84.4161 55.8275 85.2701 55.3235 85.7741C55.0015 86.0961 54.5535 86.2781 54.0635 86.2781C53.5735 86.2781 53.1395 86.0961 52.8175 85.7741C52.3135 85.2701 52.2575 84.4161 52.2575 83.6461C52.2575 82.8761 52.3135 82.0221 52.8175 81.5181C53.1395 81.1961 53.5735 81.0141 54.0635 81.0141C54.5535 81.0141 55.0015 81.1961 55.3235 81.5181C55.8275 82.0221 55.8695 82.8761 55.8695 83.6461ZM64.5113 83.6461C64.5113 82.5681 64.3713 81.4201 63.6713 80.7201C63.3073 80.3561 62.6913 80.1181 61.9913 80.1181C61.2353 80.1181 60.6053 80.2861 60.0453 81.0141V80.2021H59.0373V90.1701H60.0453V86.2781C60.6053 86.9921 61.2353 87.1741 61.9913 87.1741C62.6913 87.1741 63.3073 86.9361 63.6713 86.5721C64.3713 85.8721 64.5113 84.7241 64.5113 83.6461ZM63.5033 83.6461C63.5033 84.9901 63.2793 86.2781 61.7813 86.2781C60.2833 86.2781 60.0453 84.9901 60.0453 83.6461C60.0453 82.3021 60.2833 81.0141 61.7813 81.0141C63.2793 81.0141 63.5033 82.3021 63.5033 83.6461ZM71.9303 83.6461C71.9303 82.5821 71.7903 81.6161 71.0903 80.9021C70.6143 80.4261 69.9563 80.1181 69.1163 80.1181C68.2763 80.1181 67.6183 80.4261 67.1423 80.9021C66.4423 81.6161 66.3023 82.5821 66.3023 83.6461C66.3023 84.7101 66.4423 85.6761 67.1423 86.3901C67.6183 86.8661 68.2763 87.1741 69.1163 87.1741C69.9563 87.1741 70.6143 86.8661 71.0903 86.3901C71.7903 85.6761 71.9303 84.7101 71.9303 83.6461ZM70.9223 83.6461C70.9223 84.4161 70.8803 85.2701 70.3763 85.7741C70.0543 86.0961 69.6063 86.2781 69.1163 86.2781C68.6263 86.2781 68.1923 86.0961 67.8703 85.7741C67.3663 85.2701 67.3103 84.4161 67.3103 83.6461C67.3103 82.8761 67.3663 82.0221 67.8703 81.5181C68.1923 81.1961 68.6263 81.0141 69.1163 81.0141C69.6063 81.0141 70.0543 81.1961 70.3763 81.5181C70.8803 82.0221 70.9223 82.8761 70.9223 83.6461ZM78.6821 80.7621C78.1921 80.2721 77.6881 80.1181 77.0301 80.1181C76.2321 80.1181 75.4761 80.4681 75.0981 81.0421V80.2021H74.0901V87.0901H75.0981V82.8621C75.0981 81.8121 75.7421 81.0141 76.7501 81.0141C77.2821 81.0141 77.5621 81.1401 77.9401 81.5181L78.6821 80.7621ZM82.6287 87.0901V86.2221H82.0967C81.4527 86.2221 81.1587 85.8441 81.1587 85.2141V81.0141H82.6287V80.2441H81.1587V78.0881H80.1507V80.2441H79.2827V81.0141H80.1507V85.2421C80.1507 86.2641 80.7387 87.0901 81.9147 87.0901H82.6287ZM89.7997 83.9121V83.4501C89.7997 81.4061 88.7497 80.1181 86.9717 80.1181C85.2217 80.1181 84.1437 81.4201 84.1437 83.6461C84.1437 86.0821 85.3337 87.1741 87.1537 87.1741C88.3297 87.1741 88.9737 86.8101 89.6737 86.1101L88.9877 85.5081C88.4417 86.0541 87.9797 86.2921 87.1817 86.2921C85.8657 86.2921 85.1517 85.4241 85.1517 83.9121H89.7997ZM88.7917 83.1561H85.1517C85.1797 82.5961 85.2077 82.3861 85.3617 82.0081C85.6277 81.3781 86.2437 80.9721 86.9717 80.9721C87.6997 80.9721 88.3157 81.3781 88.5817 82.0081C88.7357 82.3861 88.7637 82.5961 88.7917 83.1561ZM99.6595 87.1041V80.1461C99.6595 79.1941 99.4075 78.4381 98.8615 77.8921C98.3295 77.3601 97.6015 77.1081 96.7055 77.1081H94.6335C93.7235 77.1081 92.9955 77.3601 92.4775 77.8921C91.9455 78.4381 91.6935 79.1941 91.6935 80.1461V84.8501C91.6935 86.0961 91.9315 86.5861 92.7855 87.2161L93.4715 86.5301C92.8275 86.0541 92.6735 85.7181 92.6735 84.8361V80.1181C92.6735 79.3481 92.8135 78.9421 93.2335 78.5221C93.6395 78.1161 94.1015 77.9621 94.7595 77.9621H96.5795C97.2375 77.9621 97.7415 78.1301 98.1335 78.5221C98.5395 78.9421 98.6795 79.3761 98.6795 80.1181V81.2101C98.2035 80.6221 97.6155 80.3281 96.8035 80.3281C95.9915 80.3281 95.2775 80.6501 94.8715 81.1961C94.4375 81.7701 94.2975 82.5261 94.2975 83.7581C94.2975 85.0321 94.4375 85.7461 94.9135 86.3341C95.3475 86.8801 96.0335 87.1881 96.8175 87.1881C97.6715 87.1881 98.2315 86.9081 98.6935 86.3201V87.0901L99.6595 87.1041ZM98.6795 83.7581C98.6795 85.0601 98.4555 86.3201 96.9855 86.3201C95.5155 86.3201 95.2915 85.0601 95.2915 83.7581C95.2915 82.4561 95.5155 81.1961 96.9855 81.1961C98.4555 81.1961 98.6795 82.4561 98.6795 83.7581ZM106.77 80.2021H105.678L103.802 85.7321L101.912 80.2021H100.82L103.298 86.9501L102.808 88.2941C102.584 88.9241 102.374 89.1481 101.674 89.1481H101.366V90.0441H101.8C102.29 90.0441 102.78 89.9181 103.144 89.5681C103.34 89.3861 103.494 89.1341 103.634 88.7561L106.77 80.2021ZM113.662 83.6461C113.662 82.5681 113.522 81.4201 112.822 80.7201C112.458 80.3561 111.842 80.1181 111.142 80.1181C110.386 80.1181 109.756 80.2861 109.196 81.0141V80.2021H108.188V90.1701H109.196V86.2781C109.756 86.9921 110.386 87.1741 111.142 87.1741C111.842 87.1741 112.458 86.9361 112.822 86.5721C113.522 85.8721 113.662 84.7241 113.662 83.6461ZM112.654 83.6461C112.654 84.9901 112.43 86.2781 110.932 86.2781C109.434 86.2781 109.196 84.9901 109.196 83.6461C109.196 82.3021 109.434 81.0141 110.932 81.0141C112.43 81.0141 112.654 82.3021 112.654 83.6461ZM118.519 81.0141V80.2441H117.049V78.9701C117.049 78.3401 117.329 77.9621 117.973 77.9621H118.519V77.0941H117.791C116.615 77.0941 116.041 77.9201 116.041 78.9421V80.2441H115.159V81.0141H116.041V87.0901H117.049V81.0141H118.519ZM125.237 83.9121V83.4501C125.237 81.4061 124.187 80.1181 122.409 80.1181C120.659 80.1181 119.581 81.4201 119.581 83.6461C119.581 86.0821 120.771 87.1741 122.591 87.1741C123.767 87.1741 124.411 86.8101 125.111 86.1101L124.425 85.5081C123.879 86.0541 123.417 86.2921 122.619 86.2921C121.303 86.2921 120.589 85.4241 120.589 83.9121H125.237ZM124.229 83.1561H120.589C120.617 82.5961 120.645 82.3861 120.799 82.0081C121.065 81.3781 121.681 80.9721 122.409 80.9721C123.137 80.9721 123.753 81.3781 124.019 82.0081C124.173 82.3861 124.201 82.5961 124.229 83.1561ZM132.801 87.0901V82.6801C132.801 81.8821 132.577 81.2381 132.087 80.7621C131.667 80.3421 131.065 80.1181 130.323 80.1181C129.553 80.1181 128.881 80.3981 128.391 80.9581V80.2021H127.383V87.0901H128.391V82.8481C128.391 81.6441 129.063 81.0141 130.099 81.0141C131.135 81.0141 131.793 81.6301 131.793 82.8481V87.0901H132.801ZM139.836 80.7621C139.346 80.2721 138.842 80.1181 138.184 80.1181C137.386 80.1181 136.63 80.4681 136.252 81.0421V80.2021H135.244V87.0901H136.252V82.8621C136.252 81.8121 136.896 81.0141 137.904 81.0141C138.436 81.0141 138.716 81.1401 139.094 81.5181L139.836 80.7621ZM146.485 87.0901V80.2021H145.477V84.4441C145.477 85.6481 144.791 86.2781 143.755 86.2781C142.719 86.2781 142.075 85.6621 142.075 84.4441V80.2021H141.067V84.5981C141.067 85.3961 141.277 86.0541 141.767 86.5301C142.187 86.9501 142.803 87.1741 143.545 87.1741C144.315 87.1741 145.001 86.8801 145.491 86.3201V87.0901H146.485ZM151.644 87.0901V86.2221H151.112C150.468 86.2221 150.174 85.8441 150.174 85.2141V81.0141H151.644V80.2441H150.174V78.0881H149.166V80.2441H148.298V81.0141H149.166V85.2421C149.166 86.2641 149.754 87.0901 150.93 87.0901H151.644ZM158.451 87.0901V82.4141C158.451 80.9161 157.541 80.1181 155.693 80.1181C154.573 80.1181 153.873 80.3421 153.257 81.1401L153.943 81.7701C154.349 81.1961 154.797 80.9861 155.679 80.9861C156.939 80.9861 157.443 81.4901 157.443 82.4981V83.1561H155.371C153.831 83.1561 152.991 83.9401 152.991 85.1441C152.991 85.6901 153.173 86.2081 153.509 86.5441C153.943 86.9921 154.503 87.1741 155.455 87.1741C156.379 87.1741 156.883 86.9921 157.443 86.4321V87.0901H158.451ZM157.443 84.6541C157.443 85.2281 157.331 85.6201 157.093 85.8441C156.659 86.2641 156.141 86.3061 155.553 86.3061C154.461 86.3061 153.971 85.9281 153.971 85.1301C153.971 84.3321 154.475 83.9121 155.511 83.9121H157.443V84.6541ZM162.194 87.0901V85.7741H160.878V87.0901H162.194ZM169.622 86.1521L168.936 85.4941C168.418 86.0681 168.012 86.2781 167.354 86.2781C166.682 86.2781 166.122 86.0121 165.758 85.4941C165.436 85.0461 165.31 84.5141 165.31 83.6461C165.31 82.7781 165.436 82.2461 165.758 81.7981C166.122 81.2801 166.682 81.0141 167.354 81.0141C168.012 81.0141 168.418 81.2101 168.936 81.7841L169.622 81.1401C168.908 80.3701 168.306 80.1181 167.354 80.1181C165.618 80.1181 164.302 81.2941 164.302 83.6461C164.302 85.9981 165.618 87.1741 167.354 87.1741C168.306 87.1741 168.908 86.9221 169.622 86.1521ZM176.602 83.6461C176.602 82.5821 176.462 81.6161 175.762 80.9021C175.286 80.4261 174.628 80.1181 173.788 80.1181C172.948 80.1181 172.29 80.4261 171.814 80.9021C171.114 81.6161 170.974 82.5821 170.974 83.6461C170.974 84.7101 171.114 85.6761 171.814 86.3901C172.29 86.8661 172.948 87.1741 173.788 87.1741C174.628 87.1741 175.286 86.8661 175.762 86.3901C176.462 85.6761 176.602 84.7101 176.602 83.6461ZM175.594 83.6461C175.594 84.4161 175.552 85.2701 175.048 85.7741C174.726 86.0961 174.278 86.2781 173.788 86.2781C173.298 86.2781 172.864 86.0961 172.542 85.7741C172.038 85.2701 171.982 84.4161 171.982 83.6461C171.982 82.8761 172.038 82.0221 172.542 81.5181C172.864 81.1961 173.298 81.0141 173.788 81.0141C174.278 81.0141 174.726 81.1961 175.048 81.5181C175.552 82.0221 175.594 82.8761 175.594 83.6461ZM188.618 87.0901V82.6801C188.618 81.8821 188.366 81.2381 187.876 80.7621C187.456 80.3561 186.84 80.1181 186.098 80.1181C185.132 80.1181 184.362 80.5101 183.83 81.2661C183.41 80.5101 182.668 80.1181 181.716 80.1181C180.946 80.1181 180.26 80.3981 179.77 80.9581V80.2021H178.762V87.0901H179.77V82.8481C179.77 81.6441 180.456 81.0141 181.492 81.0141C182.528 81.0141 183.186 81.6301 183.186 82.8481V87.0901H184.194V82.7361C184.194 81.6441 184.908 81.0141 185.916 81.0141C186.952 81.0141 187.61 81.6301 187.61 82.8481V87.0901H188.618Z" fill="#808080"/>
</svg>
